<svg width="227" height="48" viewBox="0 0 227 48" fill="none" xmlns="http://www.w3.org/2000/svg">
<path d="M97.7887 31.2144L97.7492 30.0857C97.7258 29.3774 97.7422 28.6 97.7986 27.7535L97.9377 25.7815C97.9631 25.314 97.9913 24.8908 98.0223 24.5117C97.047 25.728 96.2597 26.677 95.6604 27.3589L93.8747 29.3371C89.8683 33.599 87.4564 35.7562 86.6391 35.8089C85.4352 35.8864 84.1538 35.7083 82.795 35.2746C82.0586 35.0337 81.6307 34.7618 81.5114 34.4589C81.3319 34.0823 81.2208 33.5627 81.1781 32.9C81.1347 32.2263 81.1169 31.6063 81.1248 31.0402C81.1327 30.4741 81.152 29.9127 81.1827 29.3562C81.2127 28.7887 81.2444 28.2487 81.278 27.7364C81.3219 27.2123 81.3534 26.7556 81.3727 26.3662C81.4269 25.4865 81.4209 25.0488 81.3547 25.0531L75.6794 33.0213C72.9945 36.6213 71.4649 38.6163 71.0908 39.0064C70.2901 39.8343 69.3762 40.2814 68.3491 40.3476C67.841 40.3803 67.4131 40.2803 67.0654 40.0476C66.7177 39.8149 66.5318 39.5108 66.5076 39.1353C66.4592 38.3843 66.7234 37.5798 67.3003 36.7219L80.8071 17.0698L82.3967 14.8879C84.2952 12.3368 85.5648 11.0405 86.2054 10.9993C87.1 10.9416 87.965 11.1133 88.8005 11.5142C89.544 11.8655 89.9776 12.2258 90.1012 12.5949C90.1546 12.7356 90.1037 13.4099 89.9486 14.6177L89.5705 17.7862C89.1437 21.3184 88.963 23.5925 89.0285 24.6086C89.0932 25.6137 89.2416 26.1088 89.4735 26.0938C90.2246 26.0455 91.5921 24.7208 93.5761 22.1197L98.5298 15.3459C99.6241 13.9112 100.358 13.0876 100.733 12.8749C100.84 12.8126 100.998 12.7746 101.208 12.7611C101.418 12.7476 101.652 12.7603 101.909 12.7991C102.178 12.8373 102.448 12.892 102.718 12.9633C103 13.0338 103.272 13.1217 103.534 13.2268C103.796 13.3319 104.03 13.4444 104.238 13.5641C104.687 13.8235 104.912 14.0475 104.913 14.2359C104.924 14.4127 104.906 14.8076 104.856 15.4207C104.806 16.0229 104.743 16.7589 104.666 17.629C104.117 23.3982 103.85 26.7426 103.865 27.6621C103.891 28.581 104.022 29.1493 104.257 29.367C104.504 29.584 104.849 29.6783 105.291 29.6498C106.097 29.5979 107.237 29.042 108.71 27.9822C109.706 27.2637 110.541 26.8827 111.215 26.8393C111.9 26.7952 112.263 27.099 112.305 27.7506C112.348 28.4243 112.037 29.2651 111.37 30.273C110.41 31.7322 108.923 33.0924 106.908 34.3534C105.212 35.4054 103.575 35.9822 101.995 36.0839C99.4107 36.2504 98.0085 34.6273 97.7887 31.2144Z" fill="white"/>
<path d="M141.232 19.9647C141.586 19.9419 141.782 20.2287 141.82 20.8252C141.886 21.8523 141.254 23.2295 139.924 24.9566L139.041 25.9783C136.365 29.0232 133.793 31.1021 131.325 32.2149C129.794 32.9013 128.666 32.9462 127.94 32.3497C127.341 31.8448 126.838 31.0011 126.429 29.8186L125.939 28.4028L122.55 30.8005L120.587 32.0914C118.242 33.5734 116.462 34.3534 115.247 34.4317C113.69 34.532 112.354 34.0137 111.238 32.8767C110.17 31.8031 109.588 30.5153 109.492 29.0132C109.396 27.5332 109.902 26.1752 111.009 24.9394C112.592 23.1738 115.162 21.4833 118.718 19.8679C122.08 18.3537 124.822 17.5283 126.943 17.3917C127.661 17.3454 128.042 17.6757 128.088 18.3826C128.119 18.8686 128.049 19.2391 127.877 19.4942C127.705 19.7493 127.334 20.0227 126.765 20.3144L124.735 21.3435C121.726 22.835 119.548 24.3228 118.202 25.8069C117.818 26.2198 117.638 26.6085 117.662 26.973C117.685 27.3375 117.989 27.5009 118.575 27.4631C119.149 27.4261 120.446 26.7215 122.465 25.3493L123.787 24.449C125.837 23.0304 127.579 22.2749 129.015 22.1824C130.23 22.1042 131.071 22.5879 131.537 23.6336C131.655 23.9144 131.768 24.201 131.875 24.4936C131.982 24.775 132.087 25.0289 132.191 25.2551C132.424 25.7835 132.618 26.0427 132.773 26.0328C132.939 26.0221 133.166 25.9299 133.454 25.756C133.741 25.5711 134.054 25.3458 134.392 25.0801C134.74 24.8026 135.098 24.5022 135.465 24.1791L137.366 22.443C139.049 20.8484 140.338 20.0223 141.232 19.9647Z" fill="white"/>
<path d="M157.434 19.6696C158.14 19.6241 158.513 19.894 158.55 20.4794C158.597 21.1973 158.221 22.081 157.424 23.1305C156.106 24.8791 154.531 26.5997 152.699 28.2926C149.713 31.0136 146.983 32.4538 144.509 32.6132C142.731 32.7277 141.223 32.0485 139.986 30.5755C138.701 29.0391 137.97 26.9124 137.795 24.1954C137.565 20.6279 139.051 16.5728 142.252 12.0302C144.284 9.13774 146.245 7.13704 148.137 6.02812C148.724 5.67973 149.178 5.49522 149.499 5.47459C149.83 5.45324 150.132 5.48925 150.404 5.58263C150.687 5.66424 150.95 5.79146 151.194 5.96428C151.764 6.38225 152.07 6.91154 152.111 7.55214C152.153 8.19274 152.025 8.96621 151.728 9.87257C151.431 10.7679 150.978 11.7342 150.368 12.7717C149.079 14.973 147.282 17.1184 144.977 19.2078C144.425 20.4522 144.203 21.9193 144.312 23.6092C144.361 24.3713 144.65 25.0736 145.18 25.716C145.72 26.3577 146.289 26.6593 146.885 26.6209C147.702 26.5683 149.211 25.6227 151.41 23.7841L154.213 21.3244C155.355 20.286 156.428 19.7344 157.434 19.6696Z" fill="white"/>
<path d="M168.699 11.4577C168.396 11.7434 168.063 11.9867 167.698 12.1876C167.334 12.3775 166.919 12.4873 166.455 12.5172C165.991 12.5471 165.539 12.4986 165.098 12.3717C164.658 12.2449 164.268 12.0537 163.93 11.7982C163.196 11.2466 162.799 10.5069 162.739 9.57915C162.647 8.15437 163.772 7.01723 166.113 6.16772C166.903 5.87279 167.558 5.70861 168.077 5.67517C168.596 5.64173 168.987 5.67757 169.249 5.7827C169.521 5.87607 169.746 6.0113 169.924 6.18839C170.279 6.54257 170.47 6.91846 170.495 7.31608C170.52 7.70265 170.493 8.05928 170.415 8.38598C170.347 8.71198 170.236 9.05186 170.081 9.40563C169.926 9.75941 169.733 10.1157 169.501 10.4744C169.269 10.8332 169.002 11.1609 168.699 11.4577ZM165.7 29.9671C164.888 30.452 164.093 30.847 163.314 31.1523C162.536 31.4686 161.76 31.6516 160.987 31.7014C160.225 31.7505 159.418 31.6195 158.566 31.3084C157.724 30.9855 156.963 30.5355 156.283 29.9582C154.769 28.6694 153.958 27.1801 153.849 25.4902C153.749 23.9329 154.111 22.3236 154.936 20.6623C155.693 19.1607 156.697 17.876 157.948 16.8084C159.199 15.7407 160.388 15.1706 161.514 15.098C163.127 14.9941 164.017 15.3915 164.186 16.29C164.237 16.564 164.274 16.8833 164.298 17.2477C164.321 17.6122 164.26 18.0376 164.114 18.5239C163.978 18.9985 163.787 19.4821 163.542 19.9748C163.307 20.4558 163.038 20.9334 162.736 21.4075C162.444 21.87 162.161 22.293 161.886 22.6767C161.357 23.4095 160.931 23.9416 160.608 24.2729C160.632 24.6484 160.939 25.0169 161.528 25.3782C162.082 25.7196 162.541 25.8785 162.906 25.855C163.281 25.8308 163.712 25.7144 164.198 25.5056C164.694 25.2962 165.198 25.0253 165.709 24.6929C166.231 24.3599 166.756 23.9822 167.283 23.5601C167.821 23.1372 168.348 22.7041 168.863 22.2605L171.742 19.6961C172.89 18.746 173.839 18.2468 174.59 18.1984C174.888 18.1792 175.122 18.275 175.291 18.486C175.47 18.6852 175.569 18.9283 175.587 19.2155C175.606 19.5027 175.488 19.9095 175.233 20.4361C174.978 20.9516 174.616 21.5295 174.147 22.1697C173.689 22.8091 173.145 23.4819 172.514 24.188C171.883 24.8941 171.196 25.5927 170.453 26.2838C169.71 26.9749 168.932 27.6406 168.12 28.2807C167.317 28.9091 166.51 29.4713 165.7 29.9671Z" fill="white"/>
<path d="M190.334 20.3616C190.399 21.3667 190.724 21.8504 191.309 21.8127C192.745 21.7202 194.549 20.628 196.721 18.5361L197.144 18.1263C198 17.4722 198.704 17.1274 199.257 17.0918C199.82 17.0555 200.179 17.1156 200.333 17.272C200.498 17.4277 200.593 17.6878 200.616 18.0523C200.669 18.8696 200.31 19.7633 199.541 20.7334C198.401 22.3152 196.797 23.8492 194.73 25.3354C192.335 27.0646 190.149 27.9928 188.172 28.1202C186.792 28.2091 185.875 27.4974 185.423 25.9849C185.298 25.5937 185.201 25.2173 185.134 24.8556C184.966 23.9792 184.819 23.4952 184.691 23.4036C184.563 23.312 184.321 23.3387 183.964 23.4837C183.618 23.6169 183.205 23.8376 182.726 24.1457C182.257 24.4421 181.737 24.8028 181.165 25.2278C178.141 27.5298 176.402 28.8452 175.946 29.174C174.854 29.9541 174.109 30.357 173.712 30.3826C173.314 30.4082 172.917 30.3507 172.519 30.2099C172.133 30.0684 171.788 29.8799 171.485 29.6444C170.852 29.1195 170.517 28.5644 170.479 27.979C170.263 24.6324 170.804 21.6586 172.1 19.0575C172.963 17.305 174.081 16.0574 175.453 15.3147C176.148 14.9261 176.911 14.7051 177.739 14.6517C179.252 14.5543 180.041 15.0025 180.105 15.9966C180.144 16.604 179.849 17.6212 179.22 19.048L178.786 20.0575C178.476 20.754 178.329 21.1461 178.346 21.2337C178.434 21.5608 178.593 21.7169 178.825 21.7019C179.079 21.6856 179.443 21.4736 179.916 21.0661L182.818 18.6L184.274 17.4415C185.956 16.1797 187.211 15.5221 188.039 15.4688C188.481 15.4403 188.896 15.5911 189.283 15.921C189.998 16.5182 190.371 17.0543 190.401 17.5292C190.411 17.6838 190.407 17.8727 190.388 18.0957C190.38 18.318 190.368 18.5573 190.351 18.8134L190.335 19.5963C190.319 19.8636 190.318 20.1187 190.334 20.3616Z" fill="white"/>
<path d="M225.825 14.5152C226.178 14.4925 226.374 14.7793 226.412 15.3757C226.479 16.4029 225.846 17.78 224.516 19.5072L223.634 20.5289C220.957 23.5738 218.385 25.6526 215.917 26.7654C214.386 27.4518 213.258 27.4968 212.532 26.9003C211.934 26.3954 211.43 25.5517 211.021 24.3691L210.531 22.9534L207.142 25.351L205.179 26.642C202.834 28.1239 201.055 28.904 199.84 28.9823C198.282 29.0826 196.946 28.5642 195.83 27.4272C194.763 26.3537 194.181 25.0658 194.084 23.5637C193.989 22.0837 194.494 20.7258 195.602 19.49C197.185 17.7244 199.754 16.0339 203.31 14.4185C206.673 12.9043 209.414 12.0788 211.535 11.9422C212.253 11.896 212.635 12.2263 212.68 12.9332C212.711 13.4191 212.641 13.7897 212.469 14.0447C212.297 14.2998 211.926 14.5732 211.357 14.865L209.327 15.8941C206.318 17.3855 204.14 18.8733 202.794 20.3575C202.41 20.7704 202.23 21.1591 202.254 21.5235C202.277 21.888 202.582 22.0514 203.167 22.0137C203.741 21.9767 205.038 21.2721 207.057 19.8999L208.38 18.9995C210.429 17.581 212.171 16.8255 213.607 16.733C214.822 16.6547 215.663 17.1385 216.129 18.1842C216.247 18.465 216.36 18.7516 216.468 19.0441C216.574 19.3256 216.68 19.5794 216.783 19.8057C217.016 20.3341 217.211 20.5933 217.365 20.5833C217.531 20.5727 217.758 20.4804 218.046 20.3066C218.334 20.1217 218.646 19.8964 218.984 19.6306C219.332 19.3531 219.69 19.0528 220.057 18.7297L221.958 16.9935C223.641 15.399 224.93 14.5729 225.825 14.5152Z" fill="white"/>
<path d="M48 24C48 30.8777 45.1073 37.0805 40.4708 41.4544C37.4596 44.2972 33.7136 46.369 29.5484 47.3555C27.7675 47.7767 25.9092 48 24 48C22.0898 48 20.2325 47.7767 18.4516 47.3555C14.2854 46.369 10.5395 44.2972 7.52813 41.4544C2.89275 37.0795 0 30.8777 0 24C0 18.0656 2.15409 12.6328 5.72372 8.44406C8.42147 5.277 11.9285 2.82019 15.9242 1.39294C18.4477 0.490781 21.166 0 24 0C26.834 0 29.5523 0.490781 32.0757 1.39294C36.0714 2.82019 39.5774 5.27606 42.2752 8.44303C45.8459 12.6319 48 18.0647 48 24Z" fill="#F2F2F2"/>
<path d="M43.9448 29.997C43.9448 31.8846 43.5118 33.5402 42.6811 34.8714C42.394 37.0187 41.7006 39.0454 40.6759 40.8831C40.6181 41.0702 40.5505 41.2603 40.4711 41.4542C36.1727 45.5127 30.3774 47.9999 24.0003 47.9999C17.6222 47.9999 11.8269 45.5127 7.52841 41.4542C7.45003 41.2603 7.3815 41.0702 7.32366 40.8831C6.29897 39.0454 5.60541 37.0187 5.31937 34.8714C4.48866 33.5402 4.05469 31.8846 4.05469 29.997C4.05469 27.165 6.05597 25.3949 7.22953 24.5455C7.46166 24.1184 7.71244 23.7011 7.97991 23.2946C7.974 23.2475 7.97109 23.2006 7.96913 23.1526C7.88681 20.8652 8.78222 18.6641 10.4896 16.9566C10.9696 16.4776 11.4897 16.0936 12.0668 15.7938C11.6015 15.7057 11.2596 15.6224 11.1832 15.6028C10.6972 15.4813 10.3182 15.113 10.1771 14.6447C9.47475 14.2803 9.00844 13.8611 8.92228 13.7817C8.68913 13.5642 8.54025 13.2772 8.49225 12.9725C7.84472 12.5866 7.50581 12.2525 7.41272 12.1546C7.11881 11.8441 6.98466 11.4209 7.03847 11.0055C6.69956 10.6998 6.49181 10.453 6.44381 10.3942C6.15581 10.0406 6.05981 9.57334 6.17634 9.13937C5.91281 8.79653 5.76984 8.533 5.73844 8.47328C5.73356 8.46353 5.72869 8.45368 5.72372 8.44393C5.52581 8.04034 5.53266 7.56625 5.74134 7.1695C5.49937 6.81193 5.373 6.53471 5.34459 6.46712C5.1555 6.03221 5.19862 5.53065 5.45925 5.13484C5.49553 5.07896 5.53566 5.02712 5.57775 4.97809C5.23781 4.50981 5.20744 3.86331 5.55225 3.35396C5.82066 2.95825 6.285 2.73971 6.76303 2.73971H7.36941L7.37138 2.73578C7.61334 2.25971 8.10112 1.957 8.63503 1.957C8.99653 1.957 9.38344 1.97856 9.75863 2.0109C10.0211 1.70921 10.4062 1.52696 10.8205 1.52696C10.9733 1.52696 11.1369 1.53868 11.3054 1.55734C11.5738 1.2145 12.0029 1.01762 12.4477 1.01762C12.5329 1.01762 12.6191 1.02446 12.7043 1.03918C13.1569 1.1185 13.5507 1.2145 13.8926 1.31931C13.9494 1.27037 14.0111 1.22528 14.0758 1.18609C14.3011 1.04893 14.5549 0.97937 14.8095 0.97937C15.0299 0.97937 15.2513 1.03131 15.4531 1.13509C15.6216 1.22134 15.7783 1.3075 15.9243 1.39271C15.9606 1.41325 15.9958 1.43481 16.0311 1.45543C16.2123 1.37415 16.4092 1.33103 16.609 1.33103C16.7746 1.33103 16.9421 1.36037 17.1027 1.42112C17.3799 1.525 17.6738 1.70125 17.957 1.90403C18.1265 1.8355 18.3057 1.80118 18.4859 1.80118C18.6711 1.80118 18.8572 1.83746 19.0315 1.91087C19.3704 2.05393 19.7114 2.29196 20.0268 2.56037C20.0993 2.54959 20.1717 2.54368 20.2452 2.54368C20.5616 2.54368 20.8761 2.65046 21.1317 2.85812C21.2317 2.9394 23.3672 4.69684 24 7.279C24.6319 4.69674 26.7673 2.9394 26.8673 2.85812C27.1229 2.65046 27.4373 2.54368 27.7537 2.54368C27.8272 2.54368 27.9007 2.54959 27.9732 2.56037C28.2877 2.29196 28.6285 2.05393 28.9675 1.91087C29.1428 1.83737 29.328 1.80118 29.5142 1.80118C29.6934 1.80118 29.8727 1.8355 30.0422 1.90403C30.3253 1.70125 30.6191 1.5249 30.8964 1.42112C31.0581 1.36037 31.2256 1.33103 31.3912 1.33103C31.59 1.33103 31.7869 1.37415 31.9681 1.45543C32.0033 1.43387 32.0386 1.41334 32.0758 1.39271C32.2218 1.3075 32.3785 1.22125 32.546 1.13509C32.7488 1.03121 32.9692 0.97937 33.1896 0.97937C33.4443 0.97937 33.699 1.04893 33.9233 1.18609C33.9889 1.22528 34.0496 1.27037 34.1074 1.31931C34.4482 1.2145 34.8421 1.1185 35.2946 1.03918C35.3808 1.02446 35.4661 1.01762 35.5513 1.01762C35.9961 1.01762 36.4251 1.2145 36.6936 1.55734C36.862 1.53868 37.0256 1.52696 37.1784 1.52696C37.5938 1.52696 37.9778 1.70921 38.2413 2.0109C38.6174 1.97856 39.0064 1.957 39.3688 1.957C39.9037 1.957 40.3925 2.25971 40.6296 2.73971C40.6305 2.73971 40.6305 2.73971 40.6305 2.73971H41.2437C41.7218 2.73971 42.1851 2.96012 42.4516 3.35781C42.7935 3.86818 42.7621 4.51271 42.4212 4.97809C42.4643 5.02703 42.5045 5.07896 42.5408 5.13484C42.8003 5.53056 42.8435 6.03212 42.6554 6.46712C42.6261 6.53471 42.4997 6.81193 42.2587 7.1695C42.4663 7.56625 42.4742 8.0394 42.2753 8.443C42.2705 8.45378 42.2655 8.46353 42.2606 8.47337C42.2293 8.53309 42.0873 8.79662 41.8238 9.13946C41.9403 9.57343 41.8433 10.0407 41.5553 10.3943C41.5083 10.4531 41.3006 10.6999 40.9607 11.0056C41.0146 11.4209 40.8803 11.8441 40.5864 12.1547C40.4944 12.2526 40.1544 12.5867 39.5079 12.9726C39.459 13.2773 39.31 13.5643 39.0769 13.7818C38.9907 13.8611 38.5253 14.2804 37.823 14.6448C37.6809 15.1131 37.3028 15.4814 36.8159 15.6029C36.7395 15.6225 36.3976 15.7057 35.9323 15.7939C36.5093 16.0937 37.0304 16.4777 37.5095 16.9567C39.2169 18.6642 40.1123 20.8652 40.031 23.1527C40.029 23.2007 40.0251 23.2477 40.0202 23.2947C40.2866 23.7012 40.5374 24.1186 40.7695 24.5456C41.9435 25.3948 43.9448 27.165 43.9448 29.997Z" fill="#222123"/>
<path d="M11.2504 6.0637C11.2504 6.0637 17.0548 7.82507 20.9814 11.4068C21.6826 11.0285 22.9172 10.0982 22.748 8.29289C22.5133 5.79004 20.2451 3.95189 20.2451 3.95189V4.85132C20.2451 4.85132 19.2283 3.52167 18.4853 3.20882L18.2897 4.06917C18.2897 4.06917 17.2338 2.97417 16.608 2.73951C16.608 2.73951 16.8036 3.16964 16.608 3.71723C16.608 3.71723 16.1779 3.09145 14.8091 2.38757V3.3261C14.8091 3.3261 14.2616 2.73951 12.4627 2.42667C12.4627 2.42667 12.8928 2.7786 13.1276 3.44348C13.1276 3.44348 11.6415 2.93507 10.8202 2.93507L11.5437 3.65864C11.5437 3.65864 9.88165 3.36539 8.63027 3.36539L9.21687 4.14745H6.71393C6.71393 4.14745 7.76984 5.20335 7.76984 5.90732H6.63574C6.63574 5.90732 7.14415 7.0806 8.31743 7.6281C8.31743 7.6281 7.9264 7.82367 6.98777 7.82367C6.98777 7.82367 7.49618 8.80139 8.55209 9.38798L7.53527 9.50535C7.53527 9.50535 8.39562 10.5613 9.64709 10.9523L8.43471 11.1869C8.43471 11.1869 9.13868 11.93 10.8202 12.4774L9.88165 12.7512C9.88165 12.7512 11.0157 13.8071 12.3454 13.8071L11.5241 14.2372C11.5241 14.2372 13.0885 14.6282 14.2226 14.6282L13.5186 15.3322C13.5186 15.3322 18.9723 16.0866 19.9857 12.1026C19.1128 11.0756 16.8298 8.94867 11.2504 6.0637Z" fill="#81C756"/>
<path d="M24 21.6283C26.6202 21.6283 28.9666 20.2986 29.2405 19.0472C29.5143 17.7957 27.7935 15.4884 24 15.4884C20.2065 15.4884 18.4859 17.7958 18.7596 19.0472C19.0333 20.2987 21.3798 21.6283 24 21.6283Z" fill="#FF007A"/>
<path d="M29.5484 47.3554C27.7676 47.7766 25.9092 47.9999 24 47.9999C22.0898 47.9999 20.2325 47.7766 18.4516 47.3554C18.4242 47.179 18.4281 47.0125 18.4633 46.8606C18.7523 45.6097 21.2317 44.9886 24 44.9886C26.7684 44.9886 29.2467 45.6097 29.5367 46.8606C29.572 47.0115 29.5759 47.179 29.5484 47.3554Z" fill="#FF007A"/>
<path d="M15.2161 38.3912C13.389 36.3116 11.1657 34.965 9.79189 35.787C8.41799 36.609 7.43689 39.891 10.0821 42.9018C12.7274 45.9127 16.1084 45.3621 17.1005 44.1056C18.0924 42.849 17.0432 40.4709 15.2161 38.3912Z" fill="#FF007A"/>
<path d="M17.0638 16.4294C17.4716 16.4567 17.6881 16.926 17.4446 17.2541C16.758 18.1787 15.7689 19.3443 14.4582 20.4943C12.8408 21.9128 11.2354 22.9293 10.1475 23.5438C9.80667 23.7363 9.39052 23.4932 9.37646 23.102C9.29892 20.9402 10.2592 19.1792 11.486 17.9524C12.782 16.6562 14.4333 16.2533 17.0638 16.4294Z" fill="#FF007A"/>
<path d="M8.55135 25.3434C6.90885 26.4384 5.46191 27.8853 5.46191 29.9971C5.46191 32.1089 6.0681 33.8883 7.29988 35.1202C8.53176 36.3521 9.67345 31.4039 9.72454 30.2317C9.80095 28.4815 10.2915 24.5416 8.55135 25.3434Z" fill="#FF007A"/>
<path d="M24 43.2675C27.3039 43.2675 29.9823 40.8864 29.9823 37.9492C29.9823 35.012 27.3039 32.631 24 32.631C20.696 32.631 18.0176 35.012 18.0176 37.9492C18.0176 40.8864 20.696 43.2675 24 43.2675Z" fill="#FF007A"/>
<path d="M21.5973 23.5097C19.5484 21.4608 15.9607 21.7266 13.5839 24.1034C11.2072 26.4801 10.9414 30.0679 12.9903 32.1168C15.0392 34.1657 18.6269 33.8999 21.0037 31.5231C23.3805 29.1464 23.6463 25.5586 21.5973 23.5097Z" fill="#FF007A"/>
<path d="M36.7487 6.0637C36.7487 6.0637 30.9443 7.82507 27.0177 11.4068C26.3165 11.0285 25.0819 10.0982 25.2511 8.29289C25.4858 5.79004 27.7539 3.95189 27.7539 3.95189V4.85132C27.7539 4.85132 28.7708 3.52167 29.5138 3.20882L29.7094 4.06917C29.7094 4.06917 30.7653 2.97417 31.3911 2.73951C31.3911 2.73951 31.1955 3.16964 31.3911 3.71723C31.3911 3.71723 31.8212 3.09145 33.19 2.38757V3.3261C33.19 3.3261 33.7375 2.73951 35.5364 2.42667C35.5364 2.42667 35.1063 2.7786 34.8715 3.44348C34.8715 3.44348 36.3576 2.93507 37.1789 2.93507L36.4554 3.65864C36.4554 3.65864 38.1174 3.36539 39.3688 3.36539L38.7822 4.14745H41.2851C41.2851 4.14745 40.2292 5.20335 40.2292 5.90732H41.3633C41.3633 5.90732 40.8549 7.0806 39.6816 7.6281C39.6816 7.6281 40.0726 7.82367 41.0112 7.82367C41.0112 7.82367 40.5028 8.80139 39.4469 9.38798L40.4637 9.50535C40.4637 9.50535 39.6034 10.5613 38.3519 10.9523L39.5643 11.1869C39.5643 11.1869 38.8603 11.93 37.1787 12.4774L38.1173 12.7512C38.1173 12.7512 36.9832 13.8071 35.6535 13.8071L36.4748 14.2372C36.4748 14.2372 34.9104 14.6282 33.7764 14.6282L34.4803 15.3322C34.4803 15.3322 29.0266 16.0866 28.0132 12.1026C28.8863 11.0756 31.1693 8.94867 36.7487 6.0637Z" fill="#81C756"/>
<path d="M23.9991 21.6284C21.3788 21.6284 19.0325 20.2987 18.7586 19.0473C18.4849 17.7958 20.2056 15.4885 23.9991 15.4885C27.7926 15.4885 29.5132 17.7959 29.2395 19.0473C28.9657 20.2988 26.6193 21.6284 23.9991 21.6284Z" fill="#FF007A"/>
<path d="M32.784 38.3912C34.6111 36.3116 36.8344 34.965 38.2082 35.787C39.5821 36.609 40.5632 39.891 37.918 42.9018C35.2727 45.9127 31.8917 45.3621 30.8997 44.1056C29.9077 42.849 30.957 40.4709 32.784 38.3912Z" fill="#FF007A"/>
<path d="M30.9353 16.4294C30.5275 16.4567 30.3109 16.926 30.5546 17.2541C31.2411 18.1787 32.2303 19.3443 33.541 20.4943C35.1584 21.9128 36.7637 22.9293 37.8516 23.5438C38.1925 23.7363 38.6086 23.4932 38.6227 23.102C38.7002 20.9402 37.7399 19.1792 36.5131 17.9524C35.217 16.6562 33.5657 16.2533 30.9353 16.4294Z" fill="#FF007A"/>
<path d="M39.448 25.3437C41.0905 26.4387 42.5375 27.8857 42.5375 29.9975C42.5375 32.1093 41.9313 33.8887 40.6995 35.1205C39.4676 36.3524 38.3259 31.4043 38.2748 30.232C38.1984 28.4818 37.7078 24.542 39.448 25.3437Z" fill="#FF007A"/>
<path d="M26.4008 23.5103C24.3519 25.5592 24.6177 29.147 26.9945 31.5237C29.3712 33.9005 32.959 34.1663 35.0079 32.1174C37.0568 30.0684 36.791 26.4807 34.4143 24.1039C32.0375 21.7272 28.4498 21.4614 26.4008 23.5103Z" fill="#FF007A"/>
</svg>
